<svg width="22" height="22" viewBox="0 0 22 22" fill="none" xmlns="http://www.w3.org/2000/svg">
<path fill-rule="evenodd" clip-rule="evenodd" d="M8.12207 14.8372C8.12207 14.5193 8.37977 14.2616 8.69765 14.2616H13.3023C13.6202 14.2616 13.8779 14.5193 13.8779 14.8372C13.8779 15.1551 13.6202 15.4128 13.3023 15.4128H8.69765C8.37977 15.4128 8.12207 15.1551 8.12207 14.8372Z" fill="#A6A6A6"/>
<path fill-rule="evenodd" clip-rule="evenodd" d="M11 5.8197C11.3179 5.8197 11.5756 6.0774 11.5756 6.39528V10.3778L13.279 8.67433C13.5038 8.44955 13.8683 8.44955 14.093 8.67433C14.3178 8.89911 14.3178 9.26355 14.093 9.48833L11.407 12.1744C11.1822 12.3992 10.8178 12.3992 10.593 12.1744L7.90696 9.48833C7.68218 9.26355 7.68218 8.89911 7.90696 8.67433C8.13174 8.44955 8.49617 8.44955 8.72095 8.67433L10.4244 10.3778V6.39528C10.4244 6.0774 10.6821 5.8197 11 5.8197Z" fill="#A6A6A6"/>
<path fill-rule="evenodd" clip-rule="evenodd" d="M2.75 11C2.75 6.44365 6.44365 2.75 11 2.75C15.5563 2.75 19.25 6.44365 19.25 11C19.25 15.5563 15.5563 19.25 11 19.25C6.44365 19.25 2.75 15.5563 2.75 11ZM11 3.90116C7.07942 3.90116 3.90116 7.07942 3.90116 11C3.90116 14.9205 7.07942 18.0988 11 18.0988C14.9205 18.0988 18.0988 14.9205 18.0988 11C18.0988 7.07942 14.9205 3.90116 11 3.90116Z" fill="#A6A6A6"/>
</svg>
