<svg width="139" height="28" viewBox="0 0 139 28" fill="none" xmlns="http://www.w3.org/2000/svg">
<path d="M26.36 27.44V16.08C26.36 14.64 26.0133 13.5533 25.32 12.82C24.6267 12.0867 23.72 11.72 22.6 11.72C21.1867 11.72 20.0733 12.2933 19.26 13.44C18.4467 14.5867 18.04 16.32 18.04 18.64H16.08C16.08 16.6 16.2667 14.8733 16.64 13.46C17.0267 12.0333 17.5667 10.8867 18.26 10.02C18.9667 9.14 19.7933 8.5 20.74 8.1C21.6867 7.68667 22.7333 7.48 23.88 7.48C25.4667 7.48 26.7933 7.84 27.86 8.56C28.94 9.26667 29.7533 10.2667 30.3 11.56C30.8467 12.8533 31.12 14.36 31.12 16.08V27.44H26.36ZM0 27.44V8.04H4.12L4.64 11.36C5.28 10.0667 6.12667 9.1 7.18 8.46C8.23333 7.80667 9.44 7.48 10.8 7.48C12.4 7.48 13.7333 7.84 14.8 8.56C15.88 9.26667 16.6867 10.2667 17.22 11.56C17.7667 12.8533 18.04 14.36 18.04 16.08V27.44H13.32V16.08C13.32 14.64 12.9733 13.5533 12.28 12.82C11.5867 12.0867 10.68 11.72 9.56 11.72C8.61333 11.72 7.77333 11.98 7.04 12.5C6.32 13.02 5.75333 13.8067 5.34 14.86C4.92667 15.9 4.72 17.2 4.72 18.76V27.44H0Z" fill="#202020"/>
<path d="M50.3288 27.44L49.7287 22.72V14.92C49.7287 13.56 49.4487 12.5533 48.8887 11.9C48.3421 11.2467 47.4087 10.92 46.0887 10.92C45.3288 10.92 44.6688 11.0333 44.1087 11.26C43.5487 11.4867 43.1154 11.8133 42.8088 12.24C42.5154 12.6533 42.3687 13.16 42.3687 13.76H37.2087C37.2087 12.2933 37.5621 11.1 38.2687 10.18C38.9754 9.24667 39.9888 8.56667 41.3088 8.14C42.6421 7.7 44.2354 7.48 46.0887 7.48C47.7687 7.48 49.2354 7.75334 50.4888 8.3C51.7421 8.83334 52.7154 9.66 53.4087 10.78C54.1021 11.9 54.4487 13.3333 54.4487 15.08V27.44H50.3288ZM43.9688 28C42.3021 28 40.9087 27.7133 39.7887 27.14C38.6821 26.5533 37.8488 25.7867 37.2887 24.84C36.7287 23.8933 36.4487 22.8667 36.4487 21.76C36.4487 20.5333 36.7687 19.5067 37.4087 18.68C38.0621 17.84 38.9821 17.2133 40.1687 16.8C41.3554 16.3733 42.7554 16.16 44.3688 16.16C45.4221 16.16 46.4154 16.24 47.3488 16.4C48.2954 16.56 49.2354 16.7733 50.1688 17.04V19.8C49.4354 19.56 48.6354 19.3733 47.7687 19.24C46.9021 19.1067 46.0887 19.04 45.3288 19.04C44.2088 19.04 43.2887 19.2467 42.5687 19.66C41.8487 20.0733 41.4888 20.7733 41.4888 21.76C41.4888 22.48 41.7821 23.1 42.3687 23.62C42.9554 24.14 43.8887 24.4 45.1687 24.4C46.1421 24.4 46.9688 24.1867 47.6488 23.76C48.3288 23.3333 48.8421 22.8 49.1888 22.16C49.5488 21.52 49.7287 20.88 49.7287 20.24H50.8488C50.8488 21.64 50.5887 22.9333 50.0687 24.12C49.5487 25.2933 48.7754 26.2333 47.7487 26.94C46.7354 27.6467 45.4754 28 43.9688 28Z" fill="#202020"/>
<path d="M61.3672 27.44V7.96H66.0872V27.44H61.3672ZM64.9272 18.92C64.9272 16.3733 65.2139 14.2667 65.7872 12.6C66.3605 10.9333 67.1272 9.7 68.0872 8.9C69.0605 8.08667 70.1405 7.68 71.3272 7.68C71.6472 7.68 71.9472 7.7 72.2272 7.74C72.5205 7.78 72.8072 7.84 73.0872 7.92L73.0072 12.64C72.6605 12.56 72.2872 12.4933 71.8872 12.44C71.4872 12.3867 71.1272 12.36 70.8072 12.36C69.7672 12.36 68.8939 12.6133 68.1872 13.12C67.4939 13.6133 66.9672 14.3467 66.6072 15.32C66.2605 16.2933 66.0872 17.4933 66.0872 18.92H64.9272Z" fill="#202020"/>
<path d="M77.0703 27.44V0H81.7903V27.44H77.0703ZM81.1503 15.4L89.4703 8.04H95.8703L81.1503 20.28V15.4ZM90.5903 27.44L81.9103 15.08L86.3903 14L96.3503 27.44H90.5903Z" fill="#202020"/>
<path d="M107.982 28C106.329 28 104.816 27.5733 103.442 26.72C102.069 25.8667 100.969 24.6733 100.142 23.14C99.3155 21.5933 98.9022 19.7867 98.9022 17.72C98.9022 15.5867 99.3089 13.7533 100.122 12.22C100.949 10.6867 102.049 9.51333 103.422 8.7C104.796 7.88667 106.316 7.48 107.982 7.48C109.529 7.48 110.862 7.79334 111.982 8.42C113.116 9.03334 114.022 9.87334 114.702 10.94C115.396 11.9933 115.862 13.1867 116.102 14.52C116.342 15.8533 116.356 17.2267 116.142 18.64H102.662V16.08H112.802L111.882 16.68C111.922 16.0533 111.889 15.42 111.782 14.78C111.689 14.14 111.502 13.5533 111.222 13.02C110.942 12.4867 110.542 12.06 110.022 11.74C109.516 11.4067 108.862 11.24 108.062 11.24C107.102 11.24 106.289 11.48 105.622 11.96C104.956 12.44 104.449 13.0933 104.102 13.92C103.756 14.7467 103.582 15.68 103.582 16.72V18.6C103.582 19.6933 103.742 20.66 104.062 21.5C104.396 22.34 104.882 23 105.522 23.48C106.176 23.96 106.996 24.2 107.982 24.2C108.902 24.2 109.676 23.9867 110.302 23.56C110.929 23.1333 111.329 22.4933 111.502 21.64H116.262C116.062 22.8933 115.589 24 114.842 24.96C114.109 25.9067 113.156 26.6533 111.982 27.2C110.809 27.7333 109.476 28 107.982 28Z" fill="#202020"/>
<path d="M121.953 27.44V0H126.673V27.44H121.953Z" fill="#202020"/>
<path d="M131.381 24.68C131.381 23.7733 131.687 23.0133 132.301 22.4C132.914 21.7867 133.701 21.48 134.661 21.48C135.621 21.48 136.421 21.7867 137.061 22.4C137.701 23.0133 138.021 23.7733 138.021 24.68C138.021 25.5733 137.701 26.32 137.061 26.92C136.421 27.5067 135.621 27.8 134.661 27.8C133.701 27.8 132.914 27.5 132.301 26.9C131.687 26.3 131.381 25.56 131.381 24.68Z" fill="#202020"/>
</svg>
