<svg width="22" height="22" viewBox="0 0 22 22" fill="none" xmlns="http://www.w3.org/2000/svg">
<path fill-rule="evenodd" clip-rule="evenodd" d="M10.9629 3.01849C11.3209 2.6605 11.9013 2.6605 12.2593 3.01849L19.5926 10.3518C19.7645 10.5237 19.8611 10.7569 19.8611 11C19.8611 11.2431 19.7645 11.4763 19.5926 11.6482L12.2593 18.9815C11.9013 19.3395 11.3209 19.3395 10.9629 18.9815C10.6049 18.6235 10.6049 18.0431 10.9629 17.6852L16.7314 11.9167H3.66667C3.16041 11.9167 2.75 11.5063 2.75 11C2.75 10.4937 3.16041 10.0833 3.66667 10.0833H16.7314L10.9629 4.31485C10.6049 3.95687 10.6049 3.37647 10.9629 3.01849Z" fill="#4C4C4C"/>
</svg>
